<svg version="1.2" baseProfile="tiny-ps" xmlns="http://www.w3.org/2000/svg" viewBox="0 0 139 20" width="139" height="20">
	<title>logo-svg</title>
	<defs>
		<linearGradient id="grd1" gradientUnits="userSpaceOnUse"  x1="203.496" y1="0" x2="49.336" y2="388.248">
			<stop offset="0" stop-color="#33d35e"  />
			<stop offset="100" stop-color="#2ab6d9"  />
		</linearGradient>
		<linearGradient id="grd2" gradientUnits="userSpaceOnUse"  x1="210.864" y1="0" x2="56.704" y2="388.248">
			<stop offset="0" stop-color="#33d35e"  />
			<stop offset="100" stop-color="#2ab6d9"  />
		</linearGradient>
		<linearGradient id="grd3" gradientUnits="userSpaceOnUse"  x1="218.209" y1="0" x2="64.067" y2="388.248">
			<stop offset="0" stop-color="#33d35e"  />
			<stop offset="100" stop-color="#2ab6d9"  />
		</linearGradient>
	</defs>
	<style>
		tspan { white-space:pre }
		.shp0 { fill: #ffffff } 
		.shp1 { fill: url(#grd1) } 
		.shp2 { opacity: 0.502;fill: url(#grd2) } 
		.shp3 { opacity: 0.149;fill: url(#grd3) } 
	</style>
	<g id="Layer">
		<path id="Layer" fill-rule="evenodd" class="shp0" d="M37.75 15.85C34.21 15.85 31.58 13.25 31.58 9.78C31.58 6.3 34.19 3.73 37.75 3.73C41.42 3.73 43.95 6.35 43.95 9.68C43.95 10.03 43.92 10.37 43.87 10.72L35.43 10.72C35.69 12.02 36.52 12.7 37.75 12.7C38.67 12.7 39.43 12.3 39.81 11.63L43.71 11.63C42.91 14.22 40.61 15.85 37.75 15.85ZM40.1 8.55L40.1 8.55C40.1 8.55 40.1 8.55 40.1 8.55L40.1 8.55ZM40.1 8.55C39.75 7.41 38.93 6.8 37.75 6.8C36.61 6.8 35.82 7.42 35.5 8.55L40.1 8.55ZM51.04 15.85C47.57 15.85 45.08 13.31 45.08 9.78C45.08 6.26 47.57 3.75 51.04 3.75C52.38 3.75 53.58 4.2 54.52 4.97L54.92 4.09L57.84 4.09L57.84 15.46L54.81 15.46L54.47 14.66C53.54 15.41 52.36 15.85 51.04 15.85L51.04 15.85ZM54.11 9.79C54.11 8.31 53.03 7.2 51.57 7.2C50.09 7.2 49.02 8.31 49.02 9.79C49.02 11.27 50.1 12.38 51.57 12.38C53.03 12.38 54.11 11.27 54.11 9.79ZM64.69 15.85C61.59 15.85 59.71 14.21 59.67 11.75L63.44 11.75C63.44 12.58 64.02 12.96 64.76 12.96C65.34 12.96 65.88 12.67 65.88 12.08C65.88 11.43 65.02 11.24 63.93 11.06C62.16 10.77 59.83 10.24 59.83 7.48C59.83 5.2 61.77 3.73 64.68 3.73C67.58 3.73 69.45 5.27 69.5 7.58L65.83 7.58C65.83 6.85 65.34 6.51 64.63 6.51C64.01 6.51 63.58 6.82 63.58 7.35C63.58 8 64.45 8.15 65.53 8.34C67.33 8.66 69.72 9.03 69.72 11.92C69.72 14.29 67.71 15.85 64.69 15.85L64.69 15.85ZM71.45 19.7L71.45 16.34L72.53 16.34C74.03 16.34 74.48 15.95 75.01 14.54L70.31 4.11L74.56 4.11L76.98 10.37L79.23 4.11L83.43 4.11L78.67 14.97C77.13 18.45 75.73 19.7 72.79 19.7L71.45 19.7ZM87.87 14.63L87.5 15.47L84.6 15.47L84.6 0L88.47 0L88.47 4.53C88.68 4.4 88.9 4.29 89.13 4.19C89.36 4.09 89.59 4.01 89.83 3.94C90.07 3.88 90.31 3.83 90.55 3.8C90.8 3.76 91.05 3.75 91.3 3.75C94.8 3.75 97.27 6.27 97.27 9.8C97.27 13.33 94.8 15.85 91.3 15.85C89.97 15.85 88.79 15.4 87.87 14.63ZM90.77 12.38C92.23 12.38 93.32 11.27 93.32 9.8C93.32 8.31 92.24 7.21 90.77 7.21C89.31 7.21 88.23 8.31 88.23 9.8C88.23 11.27 89.31 12.38 90.77 12.38L90.77 12.38ZM104.37 15.85C100.89 15.85 98.41 13.31 98.41 9.78C98.41 6.26 100.89 3.75 104.37 3.75C105.71 3.75 106.91 4.2 107.84 4.97L108.25 4.09L111.16 4.09L111.16 15.46L108.14 15.46L107.8 14.66C106.87 15.41 105.69 15.85 104.37 15.85L104.37 15.85ZM107.44 9.79C107.44 8.31 106.36 7.2 104.89 7.2C103.42 7.2 102.35 8.31 102.35 9.79C102.35 11.27 103.43 12.38 104.89 12.38C106.36 12.38 107.44 11.27 107.44 9.79ZM117.55 15.47L113.63 15.47L113.63 4.11L116.38 4.11L116.92 5.28C117.76 4.33 119.03 3.77 120.5 3.77C123.14 3.77 124.87 5.65 124.87 8.54L124.87 15.47L120.95 15.47L120.95 9.08C120.95 7.76 120.46 7.1 119.47 7.1C118.25 7.1 117.55 7.96 117.55 9.4L117.55 15.47ZM131.3 15.47L127.38 15.47L127.38 0L131.3 0L131.3 8.56L134 4.11L138.4 4.11L134.86 9.52L138.76 15.47L134.14 15.47L131.3 10.67L131.3 15.47Z" />
		<g id="Layer">
			<path id="Layer" fill-rule="evenodd" class="shp1" d="M10.8 0L0 19.7L5.99 19.7L16.79 0L10.8 0Z" />
			<path id="Layer" fill-rule="evenodd" class="shp2" d="M18.17 0L7.37 19.7L13.35 19.7L24.16 0L18.17 0Z" />
			<path id="Layer" fill-rule="evenodd" class="shp3" d="M25.54 0L14.74 19.7L20.72 19.7L31.52 0L25.54 0Z" />
		</g>
	</g>
</svg>